<svg id="Calque_1" data-name="Calque 1" xmlns="http://www.w3.org/2000/svg" viewBox="0 0 236.89 347.01"><defs><style>.cls-1{fill:none;stroke:#1d1d1b;stroke-miterlimit:10;stroke-width:6px;}.cls-2{fill:#37675f;}.cls-3{font-size:72px;fill:#1d1d1b;font-family:HPSimplified-Bold, HP Simplified;font-weight:700;}</style></defs><title>fabriq124</title><circle class="cls-1 circle" cx="116.87" cy="159.66" r="113.87"/><path class="cls-2" d="M415.85,304.64,360,305a9.32,9.32,0,0,1-4.59-.51,6.22,6.22,0,0,1-3.69-2.78c-1.34-2.72.83-5.8.93-5.94L471.33,144c2.66-4.94,7.38-6.52,9.82-5.09,2.09,1.23,2.26,4.52,2.28,5.05Z" transform="translate(-304.45 -138.4)"/><path class="cls-2" d="M426.6,292.15l55.83-.34a9.48,9.48,0,0,1,4.6.51,6.27,6.27,0,0,1,3.68,2.78c1.34,2.72-.82,5.81-.92,5.94L371.12,452.79c-2.66,4.94-7.37,6.52-9.82,5.09-2.09-1.22-2.25-4.51-2.27-5.05Z" transform="translate(-304.45 -138.4)"/><text class="cls-3" transform="translate(121.05 331.39) rotate(-0.26)">124</text></svg>