<?xml version="1.0" encoding="UTF-8"?>
<!DOCTYPE svg PUBLIC "-//W3C//DTD SVG 1.1//EN" "http://www.w3.org/Graphics/SVG/1.1/DTD/svg11.dtd">
<!-- Creator: CorelDRAW 2021 (64-Bit) -->
<svg xmlns="http://www.w3.org/2000/svg" xml:space="preserve" width="79.6777mm" height="114.231mm" version="1.1" style="shape-rendering:geometricPrecision; text-rendering:geometricPrecision; image-rendering:optimizeQuality; fill-rule:evenodd; clip-rule:evenodd"
viewBox="0 0 6767.2 9701.8"
 xmlns:xlink="http://www.w3.org/1999/xlink"
 xmlns:xodm="http://www.corel.com/coreldraw/odm/2003">
 <defs>
  <style type="text/css">
   <![CDATA[
    .str0 {stroke:black;stroke-width:59.9;stroke-linecap:round;stroke-linejoin:round;stroke-miterlimit:22.9256}
    .fil0 {fill:none}
    .fil3 {fill:black}
    .fil1 {fill:#36665E}
    .fil2 {fill:#FFFEFF}
   ]]>
  </style>
 </defs>
 <g id="Layer_x0020_1">
  <metadata id="CorelCorpID_0Corel-Layer"/>
  <circle class="fil0 str0" cx="3383.6" cy="4495.2" r="3353.6"/>
  <path class="fil1" d="M1430.1 4624.6c20.1,34.1 12.2,37.4 63.3,67.2 91.5,53.3 206.9,29.8 340.9,29.8l1357 -0.7c119.7,-16.6 -24,-20.1 107.3,-31.6l169.9 -388.1c-0.1,-30.8 -1.3,-16.5 5.9,-41.8l128.4 -291.8c1.6,-3.3 3.8,-7.4 5.4,-10.8 2.1,-4.5 7.9,-17.8 9.7,-22.7 10.3,-27.6 6,-22.7 14.6,-50 1.3,-4.1 2.4,-8.5 3.7,-12.5 1.3,-3.9 2.7,-8.2 4.2,-12l79.8 -195.1c2.1,-4.5 8.9,-16.8 11.2,-21.2 1.6,-3.3 3.8,-7.4 5.5,-10.7l65.3 -161.1c1.8,-4.8 7.7,-18 9.8,-22.5l103.1 -236.4c1.7,-3.3 3.9,-7.3 5.6,-10.6l172.7 -409.4c1.6,-3.4 3.6,-7.6 5,-11.1l69.9 -172.6c4.3,-8.3 10,-18.1 16.7,-31.9l52.9 -141.1c3.9,-7.8 16.7,-30.8 17,-31.5l125.2 -311.4c12,-35.4 0.1,-4.8 13.9,-34.6l124.8 -279.4c1.5,-3.6 3.3,-7.8 4.6,-11.6l32.4 -97.2c0.9,-1.9 19.8,-38.6 21.7,-42.6 20.5,-43 2.8,18.4 18.7,-43 6.3,-68.8 -5.8,-58.5 35.5,-95.3l0 -34c-92.5,19.9 12.7,13.3 -33,-10.8 -3.8,-2 -14.1,-10.2 -17.8,-12.6l-46.3 -25.2c72,-85.2 48.4,-62.4 48.4,-194l161.7 -113.2c-2.8,-4.6 -6.6,-10.2 -8.8,-13.5l-15.8 -23.3c-1.9,-2.5 -5.2,-6.8 -6.8,-8.9l27.5 -65.9c2.6,-4.2 21.7,-50 23.4,-55l41.4 -121.5c1.1,-2.1 3.4,-6.3 4.6,-8.6l79.6 -182.5c1.9,-3.4 4.3,-7.4 6.1,-10.7 1.8,-3.3 4,-7.3 5.6,-10.5l45.3 -128.2c1.2,-3.3 2.8,-7.6 4.1,-10.8 31.5,-73.5 75.5,-112.3 20.6,-193.5 -3.2,-4.7 -6,-8.3 -9.2,-12.7 -3.7,-5 -8.2,-9.5 -11.6,-13.7 -3.7,-4.7 -10.5,-4.6 -13.4,-14.6 -3,-10.6 -9,-10.8 -14.4,-15.2 -12,48.7 -27.8,57.5 -53.3,95l-114.4 195.7c-1,2 -3.2,6.6 -4.2,8.6l-68.4 74.7c-1.1,-0.1 -7.9,1.9 -8.8,-1.1l-153.4 225.5c-1.3,2.4 -3.4,6.8 -4.5,9.2 -2.3,4.9 -6.9,59.9 -37.6,61 -83,3 -34.6,0.2 -79.8,90.4 -18.5,37 -34.4,37.9 -66,68.2 -41.4,39.6 -53.1,92 -88.5,143 8.8,-9.5 47.7,20.5 -1.7,-21.4 -0.7,-0.6 -4.4,-3.2 -5.3,-3.5 -61.7,-16 -43.8,77.2 -81.8,131.4l-223.3 261.7c-2.2,2.5 -5.7,5.8 -7.9,8.2l-66.1 92.6c-0.8,1.8 -2.9,6 -3.8,7.7 -26.7,55.3 -31.3,67.1 -86.2,109.5l-33.9 38.9c-20.7,36.9 -72.2,72.2 -95.5,118.9 -1.7,3.4 -11.7,25.1 -19.1,40.4l-19 40.7c-31.9,54.3 -42.6,31.5 -76.4,66.4 -46.1,47.7 20.6,10.9 -56.2,76.7l-47.2 49.8c-33.1,53.8 -29.8,141.7 -95.8,132l-47.3 68c-14.9,36.1 -71.6,68.2 -106.7,140.1 -1,2 -3.2,6.5 -4.2,8.6l-28.5 56.6c-7.8,12.8 -18.1,19.9 -20.2,20.2 -0.7,0.2 -4.6,-0.1 -5.4,-0.1l-40.2 10.2c-31.4,67.1 6.3,43.3 -47.9,90.1l-79.9 105.4c-1,2 -3.2,6.5 -4.2,8.6l-8.2 16.8c-1.1,2.1 -19.3,56.1 -40.5,60 -0.7,0.2 -4.6,-0.1 -5.4,-0.1l-40.2 10.2c-63.7,136.4 -2.1,18.9 -92.3,128.4l-16.6 26.9c-94.6,174.1 -37.8,99.7 -109.9,121.5l-7.4 42.5c-10.6,45.4 -86.3,81.9 -127.8,165.7 -68.3,137.8 -79.9,52.4 -105.4,110.6 -1.6,3.6 -3.9,8.6 -5.4,12.3 -27.7,68.1 -86,106.9 -124.6,187.4 -1.1,2.2 -3.1,6.5 -4.1,8.6 -18.6,38.7 12.1,-13 -19.7,39l-25.6 20.1c-1,0 -5.6,-0.8 -6.5,-0.9l-26.1 -3.2c-1.6,3.9 -1.8,10.1 -2.3,12.5l-3.9 21.5c-0.4,1.9 -0.9,6.7 -1.3,8.4l-30.6 46.3c-129.4,117.4 -112.1,208.7 -162.3,205.5l-33.6 39.3c-15.2,65.6 -73.5,66.3 -111.7,134.2 -94.1,167.3 -35.2,92.7 -107.3,114.4l-6.2 34.1c-0.4,1.9 -0.9,6.7 -1.3,8.5 -0.3,1.5 -0.8,5.8 -1.3,7.1 -19.3,65.7 -80.3,63.5 -152.8,63.5 12.1,40.8 43.2,61.8 0,97l-16.3 -16.3c28,-41.7 52.3,-3.4 16.3,-80.9 -50.2,-16 -24.3,-28.6 -64.6,14.3 -22.3,23.8 -28,39.6 -32.4,82.8 54.5,-32 -44.7,-24.6 16,32.4 -30.4,39.5 36.2,74.1 -48.4,16.2z"/>
  <path class="fil2" d="M2105.6 8376c-2.1,88.9 -7.9,31.2 23.1,51.6 156,-240.2 1248.9,-1609.8 1478.3,-1917.2l740.5 -957.1c124.2,-156.4 252,-326.2 373.5,-483.7 48,-62.2 348.4,-431.1 367.5,-495.4 -175.8,-7.4 -1274.7,-12.9 -1382.9,8.5l-1600 3793.4z"/>
  <path class="fil1" d="M3601.4 4373.9l40.6 4.8c-4,3 -9.7,7.1 -12.1,9.1l-25.3 21.4c-0.7,-1.7 -3,3.5 -4.7,5.7l126.2 5.8c2.5,3.7 4.8,9.3 6,11.8 41.4,83.6 1.1,33.7 87.8,72.2 -30.8,15.5 -69.5,19.5 -124.3,39.5l9.8 38.2c108.2,-21.4 1207.1,-15.9 1382.9,-8.5 -19.1,64.3 -319.5,433.2 -367.5,495.4 -121.5,157.4 -249.3,327.3 -373.5,483.7l-740.5 957.1c-229.4,307.4 -1322.3,1677 -1478.3,1917.2 -31,-20.4 -25.2,37.3 -23.1,-51.6l-94.2 -19.2c-2.3,-5.1 -10.7,0.4 -15.2,2.9 3.6,72.8 30.7,33.8 7.1,55.6 -26.7,24.7 -3.5,-11.5 -71.9,9.1 -0.7,115.4 14.6,34.9 -53.4,64.7 14.7,13.5 46.2,-0.5 -15.3,121.1 -31.6,62.4 -113.1,252 -113.8,345 -0.2,29.3 9.2,5.2 0.5,46.4 142.4,150.1 265,-70.1 352.1,-180.8l1971.6 -2540c364.9,-468 830.6,-1087.4 1195.6,-1537 73.2,-90.1 184.3,-197.1 136.6,-309.2 -60.3,-142 -312.2,-99.2 -547.2,-99.2l-1132.9 -0.8c-141.4,1.2 -114.3,27.3 -123.7,39.3z"/>
  <path class="fil2" d="M1749.4 9001.6c-11.4,-3.4 -32.3,-1.6 -51.3,-52.9 -13.7,-37 -12.3,-45.8 -7.6,-84.6l909.6 -2196.4c156.6,-393.1 320.8,-775.8 485.3,-1164.1l428.2 -1027c54.5,-122 55.8,-95.2 87.9,-102.6 9.4,-12 -17.7,-38 123.7,-39.3l1132.9 0.8c235,0 486.9,-42.8 547.2,99.2 47.7,112.2 -63.4,219.1 -136.6,309.2 -365,449.6 -830.8,1069 -1195.6,1537l-1971.6 2540c-87.1,110.6 -209.7,330.9 -352.1,180.8zm1719.2 -4700.5l-169.9 388.1 -41.2 96.7c-1.7,3.4 -3.8,7.5 -5.6,10.9l-111.2 277.2c-1.3,4.1 -2.3,8.5 -3.7,12.5l-147.5 337.5c-1.3,4 -2.4,8.4 -3.7,12.5l-213.6 514c-1.7,3.3 -3.8,7.4 -5.5,10.7l-69.6 173c-3.9,7.8 -16.7,30.8 -17,31.5 -2.1,4.6 -7.9,17.7 -9.8,22.5 -1.5,3.8 -2.9,8.1 -4.2,12l-72.2 170.4c-1.6,3.2 -3.9,7.3 -5.6,10.6l-58.2 152c-67.5,133.6 -104.1,276.8 -172.8,409.3 -1.7,3.2 -3.8,7.4 -5.5,10.7l-64.4 161.9c-50,118.1 -37.7,143.9 -81.1,161.5 0,43.9 5.8,53.6 -10.5,86.6 -14.4,29.1 -22.5,31.7 -54.1,42.6 0,21.9 1.5,40.5 -2.8,62l-17.7 47c-1.6,3.3 -4.1,7.1 -5.8,10.4 -36.7,70.4 24.7,-50.9 -11.8,20.6l-15.4 33.1c-11,28.9 -8.4,32.9 -18.3,62.5l-192.1 454.7c-1.7,3.2 -3.9,7.4 -5.5,10.7l-222.8 537.2c-12,35.4 -0.1,4.8 -14,34.5l-32.4 64.6c-19.7,51 -49.5,108.5 -44.3,165 7,76.9 14.9,47.1 43.5,104.3 22.8,45.5 35.6,74.2 75.5,102.4 49.6,35.2 15.2,-32.4 43.4,37.4l258.7 0c16,-44.1 34.2,-51.8 72.7,-89 0.1,-0.1 16.2,-16 16.2,-16.1l90.2 -120.1c11.5,-16.5 21,-25.1 38.8,-42.1l181.4 -239c34.6,-55.2 90,-93.8 123.6,-151.3l220.8 -280.4c1.8,-3.1 3.7,-7.5 5.5,-10.7 1.8,-3 3.9,-7.4 5.7,-10.4l117.6 -157.3c24.1,-27.8 57.6,-49.4 80.1,-81.6 54.1,-77.7 103.5,-164.9 170.7,-233 26.8,-27.2 27.1,-21.9 48.6,-56.8 40.7,-83.4 70.4,-92 121.3,-161.7l140.9 -182.8c1.9,-3 4.2,-7.1 6.2,-9.9 21.4,-30.3 40.6,-37.1 62,-67.4l12 -20.3c1.8,-3.1 3.7,-7.5 5.5,-10.7l89.6 -104.5c56.1,-59.5 133.5,-201.6 210,-275.1 24.4,-23.4 5.7,-2.6 24.4,-24.2l117.6 -157.3c1.9,-3 3.9,-7.3 5.7,-10.4 1.8,-3.1 3.7,-7.5 5.5,-10.7 25,-43.8 63.7,-61.3 111.9,-130.6l154.3 -217.7c18.5,-19.6 44.3,-40 57.7,-55.5l240.8 -309c2,-2.9 4.3,-7 6.2,-10l16.8 -31.8c49.2,-83.7 127,-159.7 189,-231.4l123.4 -167.7c32.4,-55.3 80.8,-88.7 117.4,-141.3l17.5 -31.1c1.8,-3.1 3.7,-7.5 5.5,-10.7l215.4 -269.7c3.9,-6.6 7.1,-14.7 11,-21.4l267.8 -346.7c2,-2.8 4.8,-6.7 6.7,-9.5l12.3 -20.1c35.6,-62 45.8,-146.8 21.3,-217.7l-130.1 -161 -118.4 -27.1c-3.8,-1.3 -7.6,-3.5 -11.4,-4.7 -59.8,-19.1 -1555.8,-24.3 -1639.2,4.1l-159.6 81.9z"/>
  <path class="fil1" d="M3931.4 1261.2l-21.4 64.4 -54.5 2.9 0 62.1c-89.5,32.4 -62.4,83.5 -161.7,177.8 -85.4,81.2 -30.9,39.5 -82.2,111.9l-136.3 170.9c-3.2,3.4 -12.8,12.9 -15.8,16.6l-56.3 89.2c-56.9,65.7 -41,17.7 -103,123.4 -44,74.9 -39.4,27.3 -91.5,118.7 -22.3,39.1 -0.5,12.8 -31.8,49 -56.9,65.7 -41,17.7 -103.1,123.4 -33.2,56.5 -28.9,22.3 -102.7,139.8 -34.8,55.4 -72.8,65.3 -106.9,119.5 -71.3,113.5 -68.5,81.6 -102.8,139.8l-37.4 59.7c-14.3,16.6 -18.7,17.8 -41.3,39.5 -17.9,17.2 -31.9,31.3 -44.9,52.1l-68.1 93.7c-3.2,3.4 -12.8,12.9 -15.8,16.6l-56.3 89.2c-85.4,98.7 -20.5,-5.4 -108.8,133.8 -35.1,55.2 -29.6,13.5 -91.3,119 -49.4,84.4 -71.2,59.6 -118.4,140.3l-288.6 374.3c-66.7,70.4 -11.3,48.7 -104.9,137.7 -53.8,51.2 -151.3,206 -186,250.6 -27.7,35.6 -10.1,11.8 -40.3,40.5 -102.4,97.3 -48.9,116.4 -129.4,145.5l0 161.8c84.6,57.9 18,23.3 48.4,-16.2 -60.7,-57 38.5,-64.4 -16,-32.4 4.3,-43.2 10,-59 32.4,-82.8 40.3,-43 14.4,-30.3 64.6,-14.3 36,77.5 11.8,39.2 -16.3,80.9l16.3 16.3c43.2,-35.2 12.1,-56.3 0,-97 72.5,0 133.5,2.1 152.8,-63.5 0.4,-1.3 0.9,-5.6 1.3,-7.1 0.4,-1.7 0.9,-6.6 1.3,-8.5l6.2 -34.1c72,-21.7 13.2,52.9 107.3,-114.4 38.1,-67.8 96.4,-68.6 111.7,-134.2l33.6 -39.3c50.2,3.2 32.9,-88 162.3,-205.5l30.6 -46.3c0.4,-1.8 0.9,-6.6 1.3,-8.4l3.9 -21.5c0.5,-2.4 0.7,-8.6 2.3,-12.5l26.1 3.2c0.9,0.1 5.5,0.9 6.5,0.9l25.6 -20.1c31.9,-52 1.1,-0.3 19.7,-39 1,-2.1 3,-6.4 4.1,-8.6 38.6,-80.5 96.9,-119.3 124.6,-187.4 1.5,-3.7 3.9,-8.7 5.4,-12.3 25.5,-58.1 37.1,27.2 105.4,-110.6 41.6,-83.8 117.3,-120.3 127.8,-165.7l7.4 -42.5c72.1,-21.7 15.3,52.6 109.9,-121.5l16.6 -26.9c90.3,-109.5 28.6,8 92.3,-128.4l40.2 -10.2c0.8,0 4.7,0.3 5.4,0.1 21.2,-3.9 39.5,-57.9 40.5,-60l8.2 -16.8c1,-2 3.2,-6.6 4.2,-8.6l79.9 -105.4c54.2,-46.8 16.5,-23 47.9,-90.1l40.2 -10.2c0.8,0 4.7,0.3 5.4,0.1 2.2,-0.4 12.4,-7.4 20.2,-20.2l28.5 -56.6c1,-2 3.2,-6.6 4.2,-8.6 35.1,-71.8 91.8,-103.9 106.7,-140.1l47.3 -68c66,9.7 62.7,-78.1 95.8,-132l47.2 -49.8c76.8,-65.8 10.1,-29 56.2,-76.7 33.8,-34.9 44.5,-12.1 76.4,-66.4l19 -40.7c7.4,-15.4 17.4,-37 19.1,-40.4 23.3,-46.7 74.8,-82.1 95.5,-118.9l33.9 -38.9c54.9,-42.4 59.5,-54.1 86.2,-109.5 0.9,-1.8 3,-5.9 3.8,-7.7l66.1 -92.6c2.3,-2.4 5.7,-5.7 7.9,-8.2l223.3 -261.7c38,-54.1 20.1,-147.4 81.8,-131.4 0.9,0.2 4.7,2.9 5.3,3.5 49.5,41.8 10.5,11.8 1.7,21.4 35.5,-51 47.2,-103.4 88.5,-143 31.6,-30.3 47.5,-31.2 66,-68.2 45.2,-90.3 -3.2,-87.4 79.8,-90.4 30.7,-1.1 35.3,-56.1 37.6,-61 1.1,-2.4 3.2,-6.8 4.5,-9.2l153.4 -225.5c0.9,3 7.7,1 8.8,1.1l68.4 -74.7c1,-2 3.3,-6.6 4.2,-8.6l114.4 -195.7c25.5,-37.5 41.3,-46.3 53.3,-95 5.5,4.4 11.4,4.6 14.4,15.2 2.9,10 9.7,9.9 13.4,14.6 3.4,4.2 7.8,8.7 11.6,13.7 3.3,4.4 6.1,8 9.2,12.7 54.9,81.2 10.9,120 -20.6,193.5 -1.4,3.2 -2.9,7.5 -4.1,10.8l-45.3 128.2c-1.6,3.2 -3.9,7.2 -5.6,10.5 -1.8,3.3 -4.2,7.3 -6.1,10.7l-79.6 182.5c-1.2,2.3 -3.5,6.5 -4.6,8.6l-41.4 121.5c-1.8,5 -20.9,50.9 -23.4,55l-27.5 65.9c1.6,2.1 5,6.4 6.8,8.9l15.8 23.3c2.2,3.2 6,8.9 8.8,13.5l-161.7 113.2c0,131.7 23.6,108.8 -48.4,194l46.3 25.2c3.7,2.4 13.9,10.6 17.8,12.6 45.7,24.1 -59.6,30.7 33,10.8 60.5,-11.8 10.7,21.1 44.2,-51.7l41.6 -121.4c1.6,-3.4 3.9,-7.3 5.5,-10.6l59 -151.2c1.5,-3.4 3.8,-7.4 5.4,-10.8l114.3 -257.6c13.9,-29.8 1.9,0.8 14,-34.6l83.2 -191.7c30.3,-66.6 8.5,-49.4 59,-151.2l79.4 -195.5c31.9,-57.9 12.5,-40 44.2,-52.8l0 -129.4c-40.8,-14.8 -82.2,-56.1 -97,-97l-161.7 0c-25.7,71 -106.3,98 -156.2,183.4 -62.2,106.4 -53.8,59.9 -91.3,118.9l-135.1 172.1c-62.7,107.2 -25.8,21 -113.8,161.1 -46.9,74.6 -33,9.8 -129.4,161.7 -39.3,61.9 -39.9,28.9 -80.2,97.6l-220.4 280.6c-43.7,69.3 1.4,29.6 -64.9,85.7z"/>
  <path class="fil1" d="M1749.4 9001.6c8.6,-41.2 -0.8,-17.2 -0.5,-46.4 0.7,-93 82.2,-282.6 113.8,-345 61.5,-121.5 30,-107.6 15.3,-121.1 68,-29.9 52.7,50.6 53.4,-64.7 68.4,-20.5 45.2,15.7 71.9,-9.1 23.6,-21.8 -3.5,17.3 -7.1,-55.6 4.5,-2.5 12.9,-8 15.2,-2.9l94.2 19.2 1600 -3793.4 -9.8 -38.2c54.8,-20.1 93.5,-24.1 124.3,-39.5 -86.6,-38.5 -46.3,11.4 -87.8,-72.2 -1.3,-2.6 -3.6,-8.2 -6,-11.8l-126.2 -5.8c1.6,-2.3 4,-7.4 4.7,-5.7l25.3 -21.4c2.4,-1.9 8.1,-6.1 12.1,-9.1l-40.6 -4.8c-32.1,7.4 -33.4,-19.3 -87.9,102.6l-428.2 1027c-164.4,388.3 -328.7,771.1 -485.3,1164.1l-909.6 2196.4c-4.8,38.8 -6.1,47.6 7.6,84.6 19,51.3 39.9,49.5 51.3,52.9z"/>
  <path class="fil3" d="M3920.2 8537.6l274.6 -32.6 81.3 -112.7c38.1,-43.1 11.7,7.6 32.1,-48.7l291.1 0 -26.4 54.5c-11.2,21.8 -5.6,13.4 -17.2,31.3l-35.3 45.5c-2,2.8 -4.5,6.8 -6.4,9.7l-23 41.7c-1.9,2.9 -4.2,7.1 -6.2,9.9l-68.3 77.3c-1.9,3 -3.9,7.3 -5.8,10.4 -29.5,50.1 -85.3,92.6 -102.5,140l-582.1 0c-12.6,34.9 -11.2,22.9 -15.9,32.6 -1.4,2.9 -3.6,7.8 -5.2,11 -24,49 -63.6,77.3 -97,129.3l-252.5 345.8c-2,2.8 -4.3,7 -6.2,9.9 -1.9,3 -3.9,7.3 -5.8,10.4l-232.8 316.9c-29.7,39.8 -29.7,5 -31.4,81.8l873.2 0c1.3,-60.7 60.3,-106.6 108.7,-182.3l13.4 -18.9c14.1,-19.2 21.9,-26.4 28.4,-36.3 7.8,-12 16.3,-29.8 22.5,-42.2 23.1,-46.7 -1.8,19.6 21.1,-43.6l-582.1 0c1.2,-54.2 21.2,-68.9 56.6,-105l137.5 -185.9c1.8,-3.1 3.8,-7.5 5.7,-10.5 1.8,-3 4,-7.3 5.9,-10.2 10.2,-16 6.6,-8.9 20.6,-27.9 40.8,-55.1 8.1,18.5 32.4,-48.5l646.8 0c1.4,-3.8 4.5,-13.2 5.4,-10.8l183.2 -269.6c59,-100.3 149.1,-193.3 210.8,-290.4l68.3 -77.3c50.1,-70.2 82.2,-90 82.2,-192.7l-851.5 21.7 -110.8 180.2c-32.9,41.2 -12,8.1 -40.5,40.4l-37.8 59.1c-1.8,3 -4.1,7.3 -5.9,10.2 -27.8,43.5 -37.9,34.6 -53,76.4z"/>
  <path class="fil3" d="M5828.2 8343.6c-12.4,34.1 -6.7,14.7 -25.1,39.7l-128.8 194.6c-26.3,33 -35.7,27.7 -61.3,68 -75.4,118.8 -61.2,72.9 -97,129.4l-68.6 93.1c-42,42.7 -38.8,53.6 -39.6,89.7l-291.1 0c34.6,-95.7 235.5,-217.8 267.3,-250.1 105.6,-107.2 90.9,-109 206.5,-181.6l131.8 -126.9c61.5,-64.7 37.2,-54.4 105.8,-55.9zm0 0c10.5,-39.5 -7.2,-21.8 32.3,-32.4 -11.1,42.1 6,18.1 -32.3,32.4zm-1164.2 873.2l517.4 0c-17.8,49.2 -0.6,15 -40.2,56.8 -18.5,19.5 -2.7,-1.1 -24.7,23.8l-199.3 285.9c-38.1,63.6 -35.3,38.5 -67.1,78.4 -20,25 -12,6 -24.4,40.2l323.4 0c12.6,-34.9 11.2,-22.9 15.9,-32.6l15.7 -32.8c36.9,-68.9 31.4,-27.5 109.1,-149.7 1.9,-2.9 4.2,-7.1 6.2,-9.9l145.4 -178c33.4,-37.5 30.4,-46.5 31.2,-82l209.9 -32.6c71.8,-148.6 81.5,-73.2 113.4,-161.4l-161.7 0c24.8,-68.5 36.1,-37.1 79.5,-98.4l287.5 -407.8c36.6,-57.6 38.6,-25.8 85.8,-108.3 1.8,-3.1 3.7,-7.5 5.5,-10.7 1.8,-3 3.9,-7.4 5.8,-10.4l126.6 -164.5c23.8,-34.8 21.7,25.6 23.8,-73.2l-452.7 0c-18.6,51.3 -90.8,106.4 -129.3,145.6 -4.9,5 -28,29.3 -31.7,32.9 -47.6,47 -46.3,33.9 -86.4,59.1l-100.1 93.9c-28.9,29 -47.8,47.7 -72.8,72.7l-355.1 324.1c-6.4,6.3 -27.6,25.7 -34.3,30.4 -136.7,95 -45.6,15.7 -192.7,163l-97.5 96.5c-36.9,42.9 -11.5,-7.1 -31.9,49z"/>
  <path class="fil3" d="M3014.7 8311.2l97 32.4 0 64.7c-71,25.7 -91.7,98.1 -161.9,177.7 -32.8,37.2 -9.2,8.6 -32.1,48.7l-108.3 150.4c-1.9,3 -4.2,7.1 -6.2,9.9 -50.7,71.6 -125.4,140.7 -171.1,217l-223.9 309.7c-3.2,3.4 -12.8,12.9 -15.8,16.6 -19,23.8 -4.3,4.7 -18.9,29.6l-54 75.4c-8.7,9 -23.2,22.7 -31,33.7 -2,2.8 -4.4,7 -6.2,9.9l-140.6 215.1 323.4 0c0.5,-19.9 -1.5,-13.1 3.2,-29.1 12.8,-42.9 42,-58.4 69.4,-92.4l459.7 -623.6c2,-2.8 4.4,-7 6.2,-9.9 1.9,-3 4,-7.3 5.8,-10.4l188.3 -248.3c1.9,-3 4,-7.3 5.8,-10.4l296.4 -415.1c41.9,-46.4 62.8,-21.8 64.9,-113 -103.1,0 -220.9,-8.9 -315.2,24.4l-109.7 35.9c-118.5,35.4 -54.7,73.1 -124.9,101.4z"/>
 </g>
</svg>
